<?xml version="1.0" encoding="UTF-8"?>
<svg xmlns="http://www.w3.org/2000/svg" xmlns:xlink="http://www.w3.org/1999/xlink" width="890.04pt" height="190.8pt" viewBox="0 0 890.04 190.8" version="1.1">
<defs>
<clipPath id="clip1">
  <path d="M 840 8 L 890.039063 8 L 890.039063 76 L 840 76 Z M 840 8 "/>
</clipPath>
</defs>
<g id="surface1">
<path style=" stroke:none;fill-rule:nonzero;fill:rgb(37.298584%,37.298584%,37.298584%);fill-opacity:1;" d="M 789.242188 44.042969 L 789.242188 68.265625 L 804.914063 68.265625 C 809.019531 68.265625 812.222656 67.25 814.519531 65.222656 C 816.820313 63.191406 817.96875 60.3125 817.96875 56.589844 C 817.96875 52.683594 817.011719 49.613281 815.097656 47.386719 C 813.179688 45.15625 810.230469 44.042969 806.246094 44.042969 Z M 789.242188 36.917969 L 803.902344 36.917969 C 807.273438 36.917969 810.015625 35.992188 812.132813 34.136719 C 814.246094 32.285156 815.304688 29.703125 815.304688 26.394531 C 815.304688 22.777344 814.160156 20.070313 811.878906 18.28125 C 809.597656 16.488281 806.308594 15.589844 802.019531 15.589844 L 789.242188 15.589844 Z M 780.1875 75.390625 L 780.1875 8.464844 L 802.019531 8.464844 C 809.007813 8.464844 814.476563 9.976563 818.429688 12.992188 C 822.382813 16.011719 824.359375 20.539063 824.359375 26.578125 C 824.359375 29.550781 823.410156 32.207031 821.507813 34.550781 C 819.605469 36.894531 817.109375 38.636719 814.015625 39.769531 C 818.0625 40.625 821.238281 42.601563 823.554688 45.699219 C 825.867188 48.792969 827.023438 52.394531 827.023438 56.5 C 827.023438 62.628906 825.039063 67.308594 821.070313 70.542969 C 817.101563 73.773438 811.71875 75.390625 804.914063 75.390625 "/>
<g clip-path="url(#clip1)" clip-rule="nonzero">
<path style=" stroke:none;fill-rule:nonzero;fill:rgb(37.298584%,37.298584%,37.298584%);fill-opacity:1;" d="M 849.410156 39.261719 L 863.660156 39.261719 C 868.773438 39.261719 872.460938 38.292969 874.714844 36.351563 C 876.964844 34.40625 878.089844 31.449219 878.089844 27.472656 C 878.089844 23.710938 876.996094 20.796875 874.804688 18.734375 C 872.613281 16.671875 869.203125 15.636719 864.578125 15.636719 L 849.410156 15.636719 Z M 849.410156 46.386719 L 849.410156 75.390625 L 840.355469 75.390625 L 840.355469 8.511719 L 864.578125 8.511719 C 871.898438 8.511719 877.492188 10.136719 881.355469 13.386719 C 885.214844 16.632813 887.144531 21.351563 887.144531 27.542969 C 887.144531 30.972656 886.25 33.960938 884.457031 36.503906 C 882.664063 39.050781 880.054688 41.070313 876.621094 42.574219 C 880.296875 43.769531 882.941406 45.707031 884.550781 48.386719 C 886.15625 51.070313 886.964844 54.386719 886.964844 58.339844 L 886.964844 64.636719 C 886.964844 66.71875 887.191406 68.589844 887.652344 70.242188 C 888.113281 71.898438 888.90625 73.246094 890.042969 74.289063 L 890.042969 75.390625 L 880.710938 75.390625 C 879.515625 74.351563 878.75 72.816406 878.414063 70.796875 C 878.074219 68.773438 877.90625 66.6875 877.90625 64.542969 L 877.90625 58.429688 C 877.90625 54.816406 876.851563 51.902344 874.734375 49.695313 C 872.621094 47.492188 869.785156 46.386719 866.230469 46.386719 "/>
</g>
<path style=" stroke:none;fill-rule:nonzero;fill:rgb(100%,0%,0%);fill-opacity:1;" d="M 237.222656 37.242188 C 234.511719 27.074219 226.492188 19.050781 216.285156 16.300781 C 197.835938 11.375 123.808594 11.375 123.808594 11.375 C 123.808594 11.375 49.816406 11.375 31.328125 16.300781 C 21.160156 19.015625 13.140625 27.039063 10.394531 37.242188 C 5.460938 55.691406 5.460938 94.210938 5.460938 94.210938 C 5.460938 94.210938 5.460938 132.730469 10.394531 151.179688 C 13.101563 161.347656 21.125 169.375 31.328125 172.121094 C 49.816406 177.050781 123.808594 177.050781 123.808594 177.050781 C 123.808594 177.050781 197.835938 177.050781 216.285156 172.121094 C 226.453125 169.410156 234.472656 161.386719 237.222656 151.179688 C 242.15625 132.730469 242.15625 94.210938 242.15625 94.210938 C 242.15625 94.210938 242.15625 55.691406 237.222656 37.242188 "/>
<path style=" stroke:none;fill-rule:nonzero;fill:rgb(100%,100%,100%);fill-opacity:1;" d="M 100.160156 129.722656 L 161.652344 94.210938 L 100.160156 58.699219 "/>
<path style=" stroke:none;fill-rule:nonzero;fill:rgb(13.699341%,13.699341%,13.699341%);fill-opacity:1;" d="M 349.019531 162.101563 C 344.347656 158.941406 340.996094 154.050781 339.039063 147.382813 C 337.082031 140.71875 336.066406 131.867188 336.066406 120.796875 L 336.066406 105.730469 C 336.066406 94.550781 337.195313 85.589844 339.453125 78.8125 C 341.714844 72.03125 345.253906 67.101563 350.035156 64.011719 C 354.816406 60.925781 361.105469 59.34375 368.898438 59.34375 C 376.582031 59.34375 382.71875 60.925781 387.351563 64.085938 C 391.980469 67.25 395.371094 72.1875 397.515625 78.886719 C 399.664063 85.589844 400.71875 94.550781 400.71875 105.695313 L 400.71875 120.761719 C 400.71875 131.832031 399.664063 140.71875 397.59375 147.421875 C 395.519531 154.121094 392.132813 159.050781 387.425781 162.140625 C 382.757813 165.226563 376.394531 166.808594 368.371094 166.808594 C 360.164063 166.84375 353.6875 165.265625 349.019531 162.101563 M 375.261719 145.839844 C 376.542969 142.449219 377.222656 136.914063 377.222656 129.265625 L 377.222656 96.925781 C 377.222656 89.46875 376.582031 84.042969 375.261719 80.578125 C 373.984375 77.160156 371.6875 75.421875 368.410156 75.421875 C 365.246094 75.421875 363.027344 77.160156 361.707031 80.578125 C 360.429688 84.007813 359.75 89.46875 359.75 96.925781 L 359.75 129.265625 C 359.75 136.949219 360.351563 142.484375 361.59375 145.839844 C 362.835938 149.222656 365.097656 150.921875 368.371094 150.921875 C 371.6875 150.921875 373.945313 149.222656 375.261719 145.839844 "/>
<path style=" stroke:none;fill-rule:nonzero;fill:rgb(13.699341%,13.699341%,13.699341%);fill-opacity:1;" d="M 708.503906 121.054688 L 708.503906 126.296875 C 708.503906 132.960938 708.691406 137.925781 709.105469 141.28125 C 709.484375 144.589844 710.3125 147.042969 711.554688 148.550781 C 712.796875 150.050781 714.71875 150.839844 717.316406 150.839844 C 720.816406 150.839844 723.226563 149.488281 724.507813 146.777344 C 725.785156 144.066406 726.503906 139.550781 726.613281 133.21875 L 746.761719 134.386719 C 746.875 135.296875 746.910156 136.535156 746.910156 138.117188 C 746.910156 147.714844 744.273438 154.875 739.042969 159.617188 C 733.808594 164.363281 726.390625 166.734375 716.789063 166.734375 C 705.265625 166.734375 697.207031 163.121094 692.574219 155.886719 C 687.945313 148.660156 685.648438 137.511719 685.648438 122.378906 L 685.648438 104.269531 C 685.648438 88.679688 688.058594 77.34375 692.839844 70.152344 C 697.621094 62.992188 705.828125 59.414063 717.464844 59.414063 C 725.484375 59.414063 731.625 60.886719 735.914063 63.828125 C 740.210938 66.761719 743.222656 71.320313 744.992188 77.527344 C 746.722656 83.742188 747.628906 92.328125 747.628906 103.25 L 747.628906 121.019531 L 708.503906 121.019531 Z M 711.480469 77.378906 C 710.3125 78.851563 709.519531 81.257813 709.105469 84.570313 C 708.691406 87.886719 708.503906 92.972656 708.503906 99.710938 L 708.503906 107.164063 L 725.597656 107.164063 L 725.597656 99.710938 C 725.597656 93.042969 725.371094 87.996094 724.921875 84.570313 C 724.46875 81.148438 723.640625 78.695313 722.472656 77.304688 C 721.308594 75.910156 719.460938 75.199219 716.976563 75.199219 C 714.492188 75.15625 712.644531 75.910156 711.480469 77.378906 "/>
<path style=" stroke:none;fill-rule:nonzero;fill:rgb(13.699341%,13.699341%,13.699341%);fill-opacity:1;" d="M 292.160156 119.097656 L 265.574219 23.121094 L 288.769531 23.121094 L 298.070313 66.613281 C 300.445313 77.34375 302.175781 86.453125 303.304688 94.027344 L 303.984375 94.027344 C 304.773438 88.605469 306.507813 79.53125 309.21875 66.761719 L 318.855469 23.085938 L 342.050781 23.085938 L 315.167969 119.097656 L 315.167969 165.15625 L 292.160156 165.15625 "/>
<path style=" stroke:none;fill-rule:nonzero;fill:rgb(13.699341%,13.699341%,13.699341%);fill-opacity:1;" d="M 476.140625 61.375 L 476.140625 165.117188 L 457.878906 165.117188 L 455.84375 152.421875 L 455.355469 152.421875 C 450.382813 162.027344 442.929688 166.808594 433.023438 166.808594 C 426.132813 166.808594 421.050781 164.546875 417.773438 160.035156 C 414.5 155.511719 412.878906 148.46875 412.878906 138.871094 L 412.878906 61.375 L 436.226563 61.375 L 436.226563 137.546875 C 436.226563 142.179688 436.714844 145.5 437.730469 147.457031 C 438.746094 149.414063 440.441406 150.425781 442.816406 150.425781 C 444.847656 150.425781 446.808594 149.832031 448.652344 148.589844 C 450.496094 147.339844 451.890625 145.757813 452.792969 143.84375 L 452.792969 61.375 "/>
<path style=" stroke:none;fill-rule:nonzero;fill:rgb(13.699341%,13.699341%,13.699341%);fill-opacity:1;" d="M 595.953125 61.375 L 595.953125 165.117188 L 577.691406 165.117188 L 575.660156 152.421875 L 575.171875 152.421875 C 570.199219 162.027344 562.746094 166.808594 552.839844 166.808594 C 545.949219 166.808594 540.867188 164.546875 537.589844 160.035156 C 534.316406 155.511719 532.695313 148.46875 532.695313 138.871094 L 532.695313 61.375 L 556.039063 61.375 L 556.039063 137.546875 C 556.039063 142.179688 556.53125 145.5 557.546875 147.457031 C 558.5625 149.414063 560.257813 150.425781 562.632813 150.425781 C 564.664063 150.425781 566.621094 149.832031 568.46875 148.589844 C 570.3125 147.339844 571.707031 145.757813 572.609375 143.84375 L 572.609375 61.375 "/>
<path style=" stroke:none;fill-rule:nonzero;fill:rgb(13.699341%,13.699341%,13.699341%);fill-opacity:1;" d="M 539.625 41.914063 L 516.429688 41.914063 L 516.429688 165.117188 L 493.574219 165.117188 L 493.574219 41.914063 L 470.378906 41.914063 L 470.378906 23.121094 L 539.585938 23.121094 L 539.585938 41.914063 "/>
<path style=" stroke:none;fill-rule:nonzero;fill:rgb(13.699341%,13.699341%,13.699341%);fill-opacity:1;" d="M 673.261719 77.988281 C 671.828125 71.433594 669.570313 66.6875 666.40625 63.746094 C 663.242188 60.8125 658.914063 59.34375 653.378906 59.34375 C 649.085938 59.34375 645.09375 60.546875 641.367188 62.992188 C 637.640625 65.410156 634.777344 68.609375 632.742188 72.5625 L 632.554688 72.5625 L 632.554688 17.882813 L 610.039063 17.882813 L 610.039063 165.152344 L 629.316406 165.152344 L 631.691406 155.328125 L 632.179688 155.328125 C 633.988281 158.832031 636.695313 161.578125 640.3125 163.609375 C 643.925781 165.640625 647.917969 166.660156 652.324219 166.660156 C 660.230469 166.660156 666.03125 163.003906 669.757813 155.742188 C 673.484375 148.46875 675.328125 137.097656 675.328125 121.625 L 675.328125 105.207031 C 675.367188 93.605469 674.652344 84.53125 673.261719 77.988281 M 651.835938 120.3125 C 651.835938 127.878906 651.53125 133.789063 650.894531 138.082031 C 650.289063 142.375 649.238281 145.425781 647.769531 147.226563 C 646.300781 149.039063 644.339844 149.941406 641.855469 149.941406 C 639.9375 149.941406 638.164063 149.488281 636.507813 148.589844 C 634.890625 147.675781 633.535156 146.328125 632.519531 144.515625 L 632.519531 85.589844 C 633.308594 82.765625 634.664063 80.46875 636.585938 78.65625 C 638.503906 76.855469 640.574219 75.945313 642.835938 75.945313 C 645.207031 75.945313 647.050781 76.890625 648.332031 78.742188 C 649.613281 80.578125 650.515625 83.742188 651.042969 88.109375 C 651.53125 92.519531 651.796875 98.773438 651.796875 106.898438 L 651.796875 120.3125 "/>
</g>
</svg>
